<svg xmlns="http://www.w3.org/2000/svg" viewBox="0 0 336.83 145.36"><defs><style>.cls-1{fill:#fff;}</style></defs><g id="Camada_2" data-name="Camada 2"><g id="Camada_1-2" data-name="Camada 1"><path class="cls-1" d="M174.62,35.42v13H144.68v60h-13v-60H101.7v-13Z"/><path class="cls-1" d="M257.84,95.51v13H185V87.06a20.76,20.76,0,0,1,1.77-8.45,21.42,21.42,0,0,1,19-13.14H237.4a8.52,8.52,0,0,0-.73-17H185.24v-13h51.43a21.45,21.45,0,0,1,21.48,21.49A21.29,21.29,0,0,1,252,71.83a21.62,21.62,0,0,1-14.71,6.57h-31.5a8.49,8.49,0,0,0-7.62,8.45V95.3Z"/><path class="cls-1" d="M327.5,95.51l6.67,13h-14.6l-6.68-13-7-13.66-.31-.63A12.94,12.94,0,0,0,294.53,75h-13v33.59h-13v-73h46.11a19.6,19.6,0,0,1,19.61,19.61A19.76,19.76,0,0,1,322.7,73.08a17.35,17.35,0,0,1-5.64,1.57ZM314.56,61.92a6.15,6.15,0,0,0,2.71-.62,6.65,6.65,0,0,0,4-6.06,6.88,6.88,0,0,0-2-4.79,6.57,6.57,0,0,0-4.7-1.88H281.49V62Z"/><path class="cls-1" d="M35,80.87,0,60.66V20.22L35,0,70,20.22V60.66Zm-28.47-24L35,73.32,63.5,56.88V24L35,7.56,6.55,24Z"/><path class="cls-1" d="M35,117.53,0,97.31V56.88L35,36.66,70,56.88V97.31Zm-28.48-24L35,110,63.5,93.54V60.65L35,44.22,6.54,60.65Z"/><path class="cls-1" d="M66.77,135.86l-35-20.22V75.21L66.77,55l35,20.22v40.43Zm-28.48-24,28.48,16.44,28.48-16.44V79L66.77,62.54,38.29,79Z"/><path class="cls-1" d="M105,134.82a1.18,1.18,0,0,0,.42.46,3.23,3.23,0,0,0,.83.39c.35.12.8.24,1.35.37a11.48,11.48,0,0,1,1.59.51,3.82,3.82,0,0,1,1.16.68,2.63,2.63,0,0,1,.69.93,3,3,0,0,1,.24,1.24,3.4,3.4,0,0,1-.3,1.46,3.12,3.12,0,0,1-.83,1.07,3.6,3.6,0,0,1-1.29.67,5.7,5.7,0,0,1-1.64.23,7.17,7.17,0,0,1-2.53-.45,6.94,6.94,0,0,1-2.24-1.38l1.21-1.43a6.92,6.92,0,0,0,1.68,1.1,4.75,4.75,0,0,0,1.93.38,2.47,2.47,0,0,0,1.47-.39,1.22,1.22,0,0,0,.55-1.06,1.43,1.43,0,0,0-.11-.56,1.07,1.07,0,0,0-.39-.44,3,3,0,0,0-.79-.39,12.57,12.57,0,0,0-1.3-.37,12.16,12.16,0,0,1-1.62-.48,4,4,0,0,1-1.2-.65,2.57,2.57,0,0,1-.73-.94,3.27,3.27,0,0,1-.26-1.36A3.06,3.06,0,0,1,104,132a3.36,3.36,0,0,1,1.22-.68,4.92,4.92,0,0,1,1.57-.24,6.46,6.46,0,0,1,2.26.37,6.69,6.69,0,0,1,1.88,1.07L109.81,134a7,7,0,0,0-1.55-.88,4.19,4.19,0,0,0-1.55-.3,2.11,2.11,0,0,0-1.37.4,1.24,1.24,0,0,0-.49,1A1.32,1.32,0,0,0,105,134.82Z"/><path class="cls-1" d="M124.61,139.22a5.74,5.74,0,0,1-1.24,1.89,6,6,0,0,1-1.89,1.28,6.5,6.5,0,0,1-4.83,0,5.62,5.62,0,0,1-1.88-1.27,5.77,5.77,0,0,1-1.22-1.87,6.15,6.15,0,0,1,0-4.57,5.74,5.74,0,0,1,1.24-1.89,5.92,5.92,0,0,1,4.31-1.75,5.92,5.92,0,0,1,2.41.47,5.6,5.6,0,0,1,3.1,3.14,6.13,6.13,0,0,1,0,4.56Zm-2-3.82a4,4,0,0,0-.8-1.3,3.78,3.78,0,0,0-1.23-.88,3.71,3.71,0,0,0-1.57-.33,3.77,3.77,0,0,0-1.55.32,3.58,3.58,0,0,0-1.22.87,3.83,3.83,0,0,0-.79,1.29,4.39,4.39,0,0,0,0,3.14,4,4,0,0,0,.8,1.3,3.78,3.78,0,0,0,1.23.88,3.71,3.71,0,0,0,1.57.33,3.77,3.77,0,0,0,1.55-.32,3.69,3.69,0,0,0,1.22-.86,4,4,0,0,0,.79-1.29A4.39,4.39,0,0,0,123,137,4.33,4.33,0,0,0,122.66,135.4Z"/><path class="cls-1" d="M127.48,131.25h2v9.61h6v1.81h-8Z"/><path class="cls-1" d="M146.85,137.72a6.63,6.63,0,0,1-.35,2.24,4.57,4.57,0,0,1-1,1.61,4.06,4.06,0,0,1-1.54,1,6.18,6.18,0,0,1-2,.32,6.05,6.05,0,0,1-2-.32,3.91,3.91,0,0,1-1.53-1,4.19,4.19,0,0,1-1-1.57,6.32,6.32,0,0,1-.34-2.18v-6.57h2v6.49a3.41,3.41,0,0,0,.77,2.43,3.18,3.18,0,0,0,4.25,0,3.31,3.31,0,0,0,.77-2.38v-6.57h2Z"/><path class="cls-1" d="M151.88,142a5.67,5.67,0,0,1-1.48-1.28,6,6,0,0,1-1-1.73,6.39,6.39,0,0,1,.09-4.36,5.81,5.81,0,0,1,1.22-1.88,5.64,5.64,0,0,1,1.86-1.27,5.75,5.75,0,0,1,2.38-.47,7,7,0,0,1,1.43.13,5.82,5.82,0,0,1,1.18.37,5.29,5.29,0,0,1,1,.56,7.56,7.56,0,0,1,.87.72l-1.29,1.48a6.59,6.59,0,0,0-1.45-1,3.88,3.88,0,0,0-3.26-.08,3.85,3.85,0,0,0-1.2.87,4,4,0,0,0-.78,1.28,4.65,4.65,0,0,0,0,3.18,4.13,4.13,0,0,0,.78,1.3,3.88,3.88,0,0,0,1.2.88A3.65,3.65,0,0,0,155,141a3.86,3.86,0,0,0,1.8-.4,7.1,7.1,0,0,0,1.48-1.09l1.29,1.31a8.79,8.79,0,0,1-.86.78,6,6,0,0,1-1,.61,5.29,5.29,0,0,1-1.12.41,7.34,7.34,0,0,1-1.33.19l-1.08,2.51-1.71-.72,1.29-1.89A5.73,5.73,0,0,1,151.88,142Z"/><path class="cls-1" d="M172.64,139.22a5.74,5.74,0,0,1-1.24,1.89,6,6,0,0,1-1.89,1.28,6.5,6.5,0,0,1-4.83,0,5.68,5.68,0,0,1-3.1-3.14,6.15,6.15,0,0,1,0-4.57,5.74,5.74,0,0,1,1.24-1.89,5.92,5.92,0,0,1,4.31-1.75,5.92,5.92,0,0,1,2.41.47,5.6,5.6,0,0,1,3.1,3.14,6.13,6.13,0,0,1,0,4.56Zm-1.95-3.82a3.84,3.84,0,0,0-.8-1.3,3.78,3.78,0,0,0-1.23-.88,3.71,3.71,0,0,0-1.57-.33,3.77,3.77,0,0,0-1.55.32,3.58,3.58,0,0,0-1.22.87,3.83,3.83,0,0,0-.79,1.29,4.39,4.39,0,0,0,0,3.14,4,4,0,0,0,.8,1.3,3.78,3.78,0,0,0,1.23.88,3.71,3.71,0,0,0,1.57.33,3.85,3.85,0,0,0,1.56-.32,3.75,3.75,0,0,0,1.21-.86,4,4,0,0,0,.79-1.29A4.39,4.39,0,0,0,171,137,4.33,4.33,0,0,0,170.69,135.4Zm-1.17-5.62a1.36,1.36,0,0,1-1.15.52,2.18,2.18,0,0,1-.67-.1,5.83,5.83,0,0,1-.63-.22l-.57-.23a1.33,1.33,0,0,0-.48-.1.7.7,0,0,0-.54.19,2.25,2.25,0,0,0-.36.62l-1.09-.32a4.52,4.52,0,0,1,.67-1.52,1.36,1.36,0,0,1,1.15-.52,2.13,2.13,0,0,1,.67.1c.22.07.43.15.63.23l.56.22a1.34,1.34,0,0,0,.49.1.7.7,0,0,0,.54-.2,2.1,2.1,0,0,0,.36-.62l1.09.35A4.59,4.59,0,0,1,169.52,129.78Z"/><path class="cls-1" d="M184,133.06H177.5V136h5.73v1.81H177.5v3.06h6.55v1.81h-8.54V131.25H184Z"/><path class="cls-1" d="M188.24,134.82a1.27,1.27,0,0,0,.42.46,3.4,3.4,0,0,0,.83.39c.35.12.8.24,1.35.37a11.48,11.48,0,0,1,1.59.51,3.82,3.82,0,0,1,1.16.68,2.63,2.63,0,0,1,.69.93,3,3,0,0,1,.24,1.24,3.4,3.4,0,0,1-.3,1.46,3.12,3.12,0,0,1-.83,1.07,3.6,3.6,0,0,1-1.29.67,5.65,5.65,0,0,1-1.64.23,7.17,7.17,0,0,1-2.53-.45,6.94,6.94,0,0,1-2.24-1.38l1.21-1.43a7.32,7.32,0,0,0,1.68,1.1,4.75,4.75,0,0,0,1.93.38,2.47,2.47,0,0,0,1.47-.39,1.22,1.22,0,0,0,.55-1.06,1.43,1.43,0,0,0-.11-.56,1.07,1.07,0,0,0-.39-.44,3.13,3.13,0,0,0-.78-.39c-.34-.12-.77-.24-1.3-.37a11.89,11.89,0,0,1-1.63-.48,4.14,4.14,0,0,1-1.2-.65,2.57,2.57,0,0,1-.73-.94,3.27,3.27,0,0,1-.26-1.36,3.15,3.15,0,0,1,1.1-2.41,3.45,3.45,0,0,1,1.22-.68,4.92,4.92,0,0,1,1.57-.24,6.46,6.46,0,0,1,2.26.37,6.56,6.56,0,0,1,1.88,1.07L193.08,134a6.79,6.79,0,0,0-1.55-.88,4.19,4.19,0,0,0-1.55-.3,2.11,2.11,0,0,0-1.37.4,1.24,1.24,0,0,0-.49,1A1.32,1.32,0,0,0,188.24,134.82Z"/><path class="cls-1" d="M206.61,142.67h-2v-9.56H201v-1.86h9.27v1.86h-3.62Z"/><path class="cls-1" d="M220.8,133.06h-6.46V136h5.73v1.81h-5.73v3.06h6.54v1.81h-8.53V131.25h8.45Z"/><path class="cls-1" d="M232.3,141.68a6.44,6.44,0,0,1-1,.64,5.54,5.54,0,0,1-1.21.4,6.64,6.64,0,0,1-1.46.14,5.7,5.7,0,0,1-4.16-1.7,5.8,5.8,0,0,1-1.21-1.87,6,6,0,0,1-.44-2.32,6.11,6.11,0,0,1,.43-2.3,5.73,5.73,0,0,1,3.07-3.15,5.83,5.83,0,0,1,2.39-.47,6.93,6.93,0,0,1,1.42.13,5.92,5.92,0,0,1,1.19.37,5.29,5.29,0,0,1,1,.56,7.56,7.56,0,0,1,.87.72l-1.29,1.48a6.59,6.59,0,0,0-1.45-1,3.7,3.7,0,0,0-1.75-.4,3.62,3.62,0,0,0-1.51.32,3.7,3.7,0,0,0-1.2.87,3.86,3.86,0,0,0-.78,1.28,4.3,4.3,0,0,0-.28,1.58,4.36,4.36,0,0,0,.28,1.59,4,4,0,0,0,.78,1.3,3.7,3.7,0,0,0,1.2.87,3.62,3.62,0,0,0,1.51.32,3.77,3.77,0,0,0,1.8-.4,7.1,7.1,0,0,0,1.48-1.09l1.29,1.31A8,8,0,0,1,232.3,141.68Z"/><path class="cls-1" d="M243.29,131.25h2v11.42H243.6l-6.29-8.13v8.13h-2V131.25h1.86l6.11,7.89Z"/><path class="cls-1" d="M259.21,139.22a5.91,5.91,0,0,1-1.24,1.89,6.07,6.07,0,0,1-1.89,1.28,6.5,6.5,0,0,1-4.83,0,5.62,5.62,0,0,1-1.88-1.27,5.77,5.77,0,0,1-1.22-1.87,6.15,6.15,0,0,1,0-4.57,5.59,5.59,0,0,1,1.24-1.89,5.92,5.92,0,0,1,4.3-1.75,6,6,0,0,1,2.42.47,5.69,5.69,0,0,1,3.1,3.14,6.13,6.13,0,0,1,0,4.56Zm-1.95-3.82a4,4,0,0,0-.8-1.3,3.78,3.78,0,0,0-1.23-.88,3.71,3.71,0,0,0-1.57-.33,3.85,3.85,0,0,0-1.56.32,3.54,3.54,0,0,0-1.21.87,3.83,3.83,0,0,0-.79,1.29,4.39,4.39,0,0,0,0,3.14,3.84,3.84,0,0,0,.8,1.3,3.78,3.78,0,0,0,1.23.88,3.7,3.7,0,0,0,1.56.33,3.78,3.78,0,0,0,1.56-.32,3.69,3.69,0,0,0,1.22-.86,4.22,4.22,0,0,0,.79-1.29,4.38,4.38,0,0,0,.28-1.58A4.33,4.33,0,0,0,257.26,135.4Z"/><path class="cls-1" d="M262.08,131.25h2v9.61h6v1.81h-8Z"/><path class="cls-1" d="M283.17,139.22a5.59,5.59,0,0,1-1.24,1.89,6,6,0,0,1-1.89,1.28,6.5,6.5,0,0,1-4.83,0,5.58,5.58,0,0,1-1.87-1.27,5.79,5.79,0,0,1-1.23-1.87,6.15,6.15,0,0,1,0-4.57,5.91,5.91,0,0,1,1.24-1.89,6.29,6.29,0,0,1,1.9-1.28,6.06,6.06,0,0,1,2.41-.47,5.89,5.89,0,0,1,2.41.47,5.6,5.6,0,0,1,3.1,3.14,6,6,0,0,1,0,4.56Zm-1.94-3.82a4.18,4.18,0,0,0-.8-1.3,3.94,3.94,0,0,0-1.24-.88,3.67,3.67,0,0,0-1.56-.33,3.78,3.78,0,0,0-1.56.32,3.68,3.68,0,0,0-1.22.87,4,4,0,0,0-.79,1.29,4.54,4.54,0,0,0,0,3.14,4,4,0,0,0,.8,1.3,3.89,3.89,0,0,0,1.23.88,3.71,3.71,0,0,0,1.57.33,3.78,3.78,0,0,0,1.56-.32,3.65,3.65,0,0,0,1.21-.86,4.25,4.25,0,0,0,.8-1.29,4.38,4.38,0,0,0,.28-1.58A4.33,4.33,0,0,0,281.23,135.4Zm-4.29-5.1,1.73-2.68,1.8.8-2,1.88Z"/><path class="cls-1" d="M295.29,141.77a6.44,6.44,0,0,1-1.11.57,7.07,7.07,0,0,1-1.28.38,6.77,6.77,0,0,1-1.44.14,6.34,6.34,0,0,1-2.43-.45,5.51,5.51,0,0,1-1.87-1.24,5.73,5.73,0,0,1-1.2-1.86,6.4,6.4,0,0,1-.42-2.34,6,6,0,0,1,.43-2.28,5.85,5.85,0,0,1,1.22-1.89,5.83,5.83,0,0,1,4.24-1.75,8.05,8.05,0,0,1,1.36.11,6.33,6.33,0,0,1,1.14.3,5.93,5.93,0,0,1,1,.48,7.75,7.75,0,0,1,.91.66l-1.27,1.52a6.24,6.24,0,0,0-.67-.51,4.41,4.41,0,0,0-1.54-.63,5.06,5.06,0,0,0-1-.09,3.42,3.42,0,0,0-1.46.32,3.92,3.92,0,0,0-1.18.88,4.2,4.2,0,0,0-.78,1.29,4.29,4.29,0,0,0-.29,1.57,4.77,4.77,0,0,0,.28,1.63,3.88,3.88,0,0,0,.79,1.3,3.69,3.69,0,0,0,1.23.86,3.86,3.86,0,0,0,1.59.31,4.7,4.7,0,0,0,1.52-.24,4.38,4.38,0,0,0,1.24-.63V138h-2.93v-1.74h4.87v4.79A9.92,9.92,0,0,1,295.29,141.77Z"/><path class="cls-1" d="M300.94,131.25v11.42h-2V131.25Z"/><path class="cls-1" d="M313,141.68a6.35,6.35,0,0,1-1,.64,5.63,5.63,0,0,1-1.22.4,6.64,6.64,0,0,1-1.46.14,5.89,5.89,0,0,1-2.32-.45,6,6,0,0,1-1.83-1.25,5.82,5.82,0,0,1-1.22-1.87,6.28,6.28,0,0,1,0-4.62,5.65,5.65,0,0,1,3.07-3.15,5.78,5.78,0,0,1,2.38-.47,7,7,0,0,1,1.43.13,5.82,5.82,0,0,1,1.18.37,5.72,5.72,0,0,1,1,.56,8.41,8.41,0,0,1,.86.72l-1.29,1.48a6.36,6.36,0,0,0-1.45-1,3.66,3.66,0,0,0-1.74-.4,3.58,3.58,0,0,0-1.51.32,3.5,3.5,0,0,0-1.2.87,3.89,3.89,0,0,0-.79,1.28,4.52,4.52,0,0,0-.27,1.58,4.58,4.58,0,0,0,.27,1.59,4,4,0,0,0,.79,1.3,3.5,3.5,0,0,0,1.2.87,3.58,3.58,0,0,0,1.51.32,3.73,3.73,0,0,0,1.79-.4,7.15,7.15,0,0,0,1.49-1.09l1.28,1.31A8,8,0,0,1,313,141.68Z"/><path class="cls-1" d="M327,142.67h-2.12l-1.16-2.76h-5.4l-1.17,2.76h-2.06l5-11.51H322Zm-6-9.11-2,4.57H323Z"/><path class="cls-1" d="M330.55,134.82a1.36,1.36,0,0,0,.42.46,3.4,3.4,0,0,0,.83.39c.36.12.81.24,1.35.37a11.64,11.64,0,0,1,1.6.51,3.76,3.76,0,0,1,1.15.68,2.54,2.54,0,0,1,.7.93,3,3,0,0,1,.23,1.24,3.4,3.4,0,0,1-.3,1.46,2.9,2.9,0,0,1-.83,1.07,3.47,3.47,0,0,1-1.28.67,5.72,5.72,0,0,1-1.65.23,7.21,7.21,0,0,1-2.53-.45A6.9,6.9,0,0,1,328,141l1.21-1.43a6.92,6.92,0,0,0,1.68,1.1,4.67,4.67,0,0,0,1.92.38,2.52,2.52,0,0,0,1.48-.39,1.24,1.24,0,0,0,.54-1.06,1.43,1.43,0,0,0-.1-.56,1.07,1.07,0,0,0-.39-.44,3.41,3.41,0,0,0-.79-.39,13.34,13.34,0,0,0-1.3-.37,12.8,12.8,0,0,1-1.63-.48,4.08,4.08,0,0,1-1.19-.65,2.6,2.6,0,0,1-.74-.94,3.27,3.27,0,0,1-.25-1.36,3.19,3.19,0,0,1,.29-1.36,3.06,3.06,0,0,1,.8-1.05,3.49,3.49,0,0,1,1.23-.68,4.86,4.86,0,0,1,1.56-.24,6.42,6.42,0,0,1,2.26.37,6.61,6.61,0,0,1,1.89,1.07L335.4,134a7,7,0,0,0-1.55-.88,4.23,4.23,0,0,0-1.55-.3,2.07,2.07,0,0,0-1.37.4,1.21,1.21,0,0,0-.49,1A1.48,1.48,0,0,0,330.55,134.82Z"/></g></g></svg>